<?xml version="1.0" encoding="UTF-8"?>
<svg width="162px" height="48px" viewBox="0 0 162 48" version="1.1" xmlns="http://www.w3.org/2000/svg" xmlns:xlink="http://www.w3.org/1999/xlink">
    <!-- Generator: Sketch 57.1 (83088) - https://sketch.com -->
    <title>GooglePlay</title>
    <desc>Created with Sketch.</desc>
    <defs>
        <polygon id="path-1" points="0.00036 0 162 0 162 47.99988 0.00036 47.99988"></polygon>
        <polygon id="path-3" points="0.00036 0 162 0 162 47.99988 0.00036 47.99988"></polygon>
        <polygon id="path-5" points="0 48 162 48 162 0 0 0"></polygon>
        <path d="M0.0644,5.8248 L0.0644,6 L0.0644,6.1752 L5.0156,11.1276 L5.1296,11.064 L10.9964,7.7304 C12.6716,6.7788 12.6716,5.22 10.9964,4.2684 L10.9964,4.2684 L5.1296,0.9348 L5.0168,0.8712 L0.0644,5.8248 Z" id="path-7"></path>
        <linearGradient x1="80.749174%" y1="50.0081935%" x2="-157.282002%" y2="50.0081935%" id="linearGradient-9">
            <stop stop-color="#FEFEFE" offset="0%"></stop>
            <stop stop-color="#F8F8F8" offset="100%"></stop>
        </linearGradient>
        <path d="M0.522,14.9436 C1.074,15.5268 1.9872,15.6 3.0132,15.0168 L3.0132,15.0168 L20.5296,5.064 L15.4644,0 L0.522,14.9436 Z" id="path-10"></path>
        <linearGradient x1="86.244175%" y1="30.9020852%" x2="-50.1409644%" y2="136.010437%" id="linearGradient-12">
            <stop stop-color="#EE4547" offset="0%"></stop>
            <stop stop-color="#C7186D" offset="100%"></stop>
        </linearGradient>
        <path d="M0.522,0.6564 L15.4644,15.6 L20.5296,10.5348 L3.0132,0.5844 C2.532,0.3096 2.0748,0.18 1.6692,0.18 L1.6692,0.18 C1.2096,0.18 0.8148,0.3456 0.522,0.6564" id="path-13"></path>
        <linearGradient x1="-50.7486025%" y1="-36.483095%" x2="60.6061585%" y2="49.3388134%" id="linearGradient-15">
            <stop stop-color="#73C169" offset="0%"></stop>
            <stop stop-color="#289E6F" offset="100%"></stop>
        </linearGradient>
    </defs>
    <g id="Driver-Landing-Page" stroke="none" stroke-width="1" fill="none" fill-rule="evenodd">
        <g id="Dropoff.ng-customer-landingpage-A-v2" transform="translate(-349.000000, -436.000000)">
            <g id="Intro" transform="translate(187.000000, 96.000000)">
                <g id="intro-copy" transform="translate(0.000000, 124.000000)">
                    <g id="GooglePlay" transform="translate(162.000000, 216.000000)">
                        <g id="Group-30" transform="translate(0.000000, 0.000240)">
                            <g id="Group-3">
                                <mask id="mask-2" fill="white">
                                    <use xlink:href="#path-1"></use>
                                </mask>
                                <g id="Clip-2"></g>
                                <path d="M156.00036,47.99988 L6.00036,47.99988 C2.70036,47.99988 0.00036,45.29988 0.00036,41.99988 L0.00036,5.99988 C0.00036,2.69988 2.70036,-0.00012 6.00036,-0.00012 L156.00036,-0.00012 C159.30036,-0.00012 162.00036,2.69988 162.00036,5.99988 L162.00036,41.99988 C162.00036,45.29988 159.30036,47.99988 156.00036,47.99988" id="Fill-1" fill="#010202" mask="url(#mask-2)"></path>
                            </g>
                            <g id="Group-6">
                                <mask id="mask-4" fill="white">
                                    <use xlink:href="#path-3"></use>
                                </mask>
                                <g id="Clip-5"></g>
                                <path d="M156.00036,-0.00012 L6.00036,-0.00012 C2.70036,-0.00012 0.00036,2.69988 0.00036,5.99988 L0.00036,41.99988 C0.00036,45.29988 2.70036,47.99988 6.00036,47.99988 L156.00036,47.99988 C159.30036,47.99988 162.00036,45.29988 162.00036,41.99988 L162.00036,5.99988 C162.00036,2.69988 159.30036,-0.00012 156.00036,-0.00012 M156.00036,0.95988 C158.77836,0.95988 161.03916,3.22068 161.03916,5.99988 L161.03916,41.99988 C161.03916,44.77908 158.77836,47.03988 156.00036,47.03988 L6.00036,47.03988 C3.22116,47.03988 0.96036,44.77908 0.96036,41.99988 L0.96036,5.99988 C0.96036,3.22068 3.22116,0.95988 6.00036,0.95988 L156.00036,0.95988" id="Fill-4" fill="#A6A6A5" mask="url(#mask-4)"></path>
                            </g>
                            <path d="M56.90196,12.29172 C56.90196,13.29732 56.60436,14.09772 56.00796,14.69532 C55.32996,15.40572 54.44796,15.76092 53.36316,15.76092 C52.32396,15.76092 51.43956,15.40092 50.71356,14.67972 C49.98516,13.95972 49.62276,13.06692 49.62276,12.00012 C49.62276,10.93332 49.98516,10.04052 50.71356,9.31932 C51.43956,8.59932 52.32396,8.23812 53.36316,8.23812 C53.87796,8.23812 54.37236,8.33892 54.84036,8.54052 C55.30956,8.74212 55.68516,9.00972 55.96716,9.34572 L55.33356,9.97812 C54.85716,9.40932 54.20076,9.12372 53.36316,9.12372 C52.60476,9.12372 51.94956,9.39012 51.39636,9.92292 C50.84316,10.45692 50.56716,11.14812 50.56716,12.00012 C50.56716,12.85212 50.84316,13.54332 51.39636,14.07612 C51.94956,14.61012 52.60476,14.87532 53.36316,14.87532 C54.16716,14.87532 54.83676,14.60772 55.37436,14.07132 C55.72236,13.72212 55.92396,13.23732 55.97676,12.61332 L53.36316,12.61332 L53.36316,11.74812 L56.85156,11.74812 C56.88516,11.93652 56.90196,12.11652 56.90196,12.29172" id="Fill-7" fill="#FEFEFE"></path>
                            <path d="M56.90196,12.29172 C56.90196,13.29732 56.60436,14.09772 56.00796,14.69532 C55.32996,15.40572 54.44796,15.76092 53.36316,15.76092 C52.32396,15.76092 51.43956,15.40092 50.71356,14.67972 C49.98516,13.95972 49.62276,13.06692 49.62276,12.00012 C49.62276,10.93332 49.98516,10.04052 50.71356,9.31932 C51.43956,8.59932 52.32396,8.23812 53.36316,8.23812 C53.87796,8.23812 54.37236,8.33892 54.84036,8.54052 C55.30956,8.74212 55.68516,9.00972 55.96716,9.34572 L55.33356,9.97812 C54.85716,9.40932 54.20076,9.12372 53.36316,9.12372 C52.60476,9.12372 51.94956,9.39012 51.39636,9.92292 C50.84316,10.45692 50.56716,11.14812 50.56716,12.00012 C50.56716,12.85212 50.84316,13.54332 51.39636,14.07612 C51.94956,14.61012 52.60476,14.87532 53.36316,14.87532 C54.16716,14.87532 54.83676,14.60772 55.37436,14.07132 C55.72236,13.72212 55.92396,13.23732 55.97676,12.61332 L53.36316,12.61332 L53.36316,11.74812 L56.85156,11.74812 C56.88516,11.93652 56.90196,12.11652 56.90196,12.29172 Z" id="Stroke-9" stroke="#FEFEFE" stroke-width="0.2"></path>
                            <polygon id="Fill-11" fill="#FEFEFE" points="62.43324 9.28464 59.15484 9.28464 59.15484 11.56704 62.11044 11.56704 62.11044 12.43224 59.15484 12.43224 59.15484 14.71464 62.43324 14.71464 62.43324 15.60024 58.22964 15.60024 58.22964 8.40024 62.43324 8.40024"></polygon>
                            <polygon id="Stroke-13" stroke="#FEFEFE" stroke-width="0.2" points="62.43324 9.28464 59.15484 9.28464 59.15484 11.56704 62.11044 11.56704 62.11044 12.43224 59.15484 12.43224 59.15484 14.71464 62.43324 14.71464 62.43324 15.60024 58.22964 15.60024 58.22964 8.40024 62.43324 8.40024"></polygon>
                            <polygon id="Fill-15" fill="#FEFEFE" points="66.33444 15.59988 65.40924 15.59988 65.40924 9.28428 63.39804 9.28428 63.39804 8.39988 68.34564 8.39988 68.34564 9.28428 66.33444 9.28428"></polygon>
                            <polygon id="Stroke-17" stroke="#FEFEFE" stroke-width="0.2" points="66.33444 15.59988 65.40924 15.59988 65.40924 9.28428 63.39804 9.28428 63.39804 8.39988 68.34564 8.39988 68.34564 9.28428 66.33444 9.28428"></polygon>
                            <mask id="mask-6" fill="white">
                                <use xlink:href="#path-5"></use>
                            </mask>
                            <g id="Clip-20"></g>
                            <polygon id="Fill-19" fill="#FEFEFE" mask="url(#mask-6)" points="71.9256 15.6 72.8508 15.6 72.8508 8.4 71.9256 8.4"></polygon>
                            <polygon id="Stroke-21" stroke="#FEFEFE" stroke-width="0.2" mask="url(#mask-6)" points="71.9256 15.6 72.8508 15.6 72.8508 8.4 71.9256 8.4"></polygon>
                            <polygon id="Fill-22" fill="#FEFEFE" mask="url(#mask-6)" points="76.95396 15.59988 76.02876 15.59988 76.02876 9.28428 74.01756 9.28428 74.01756 8.39988 78.96516 8.39988 78.96516 9.28428 76.95396 9.28428"></polygon>
                            <polygon id="Stroke-23" stroke="#FEFEFE" stroke-width="0.2" mask="url(#mask-6)" points="76.95396 15.59988 76.02876 15.59988 76.02876 9.28428 74.01756 9.28428 74.01756 8.39988 78.96516 8.39988 78.96516 9.28428 76.95396 9.28428"></polygon>
                            <path d="M83.73552,14.067 C84.26832,14.6058 84.91992,14.8758 85.69152,14.8758 C86.46192,14.8758 87.11472,14.6058 87.64752,14.067 C88.18032,13.527 88.44792,12.8382 88.44792,11.9994 C88.44792,11.1618 88.18032,10.473 87.64752,9.933 C87.11472,9.393 86.46192,9.1242 85.69152,9.1242 C84.91992,9.1242 84.26832,9.393 83.73552,9.933 C83.20392,10.473 82.93632,11.1618 82.93632,11.9994 C82.93632,12.8382 83.20392,13.527 83.73552,14.067 M88.33152,14.6694 C87.62352,15.3966 86.74392,15.7602 85.69152,15.7602 C84.63912,15.7602 83.75952,15.3966 83.05272,14.6694 C82.34472,13.9422 81.99192,13.0518 81.99192,11.9994 C81.99192,10.947 82.34472,10.0566 83.05272,9.3306 C83.75952,8.6022 84.63912,8.2386 85.69152,8.2386 C86.73792,8.2386 87.61512,8.6034 88.32672,9.3354 C89.03712,10.0662 89.39232,10.953 89.39232,11.9994 C89.39232,13.0518 89.03832,13.9422 88.33152,14.6694" id="Fill-24" fill="#FEFEFE" mask="url(#mask-6)"></path>
                            <path d="M83.73552,14.067 C84.26832,14.6058 84.91992,14.8758 85.69152,14.8758 C86.46192,14.8758 87.11472,14.6058 87.64752,14.067 C88.18032,13.527 88.44792,12.8382 88.44792,11.9994 C88.44792,11.1618 88.18032,10.473 87.64752,9.933 C87.11472,9.393 86.46192,9.1242 85.69152,9.1242 C84.91992,9.1242 84.26832,9.393 83.73552,9.933 C83.20392,10.473 82.93632,11.1618 82.93632,11.9994 C82.93632,12.8382 83.20392,13.527 83.73552,14.067 Z M88.33152,14.6694 C87.62352,15.3966 86.74392,15.7602 85.69152,15.7602 C84.63912,15.7602 83.75952,15.3966 83.05272,14.6694 C82.34472,13.9422 81.99192,13.0518 81.99192,11.9994 C81.99192,10.947 82.34472,10.0566 83.05272,9.3306 C83.75952,8.6022 84.63912,8.2386 85.69152,8.2386 C86.73792,8.2386 87.61512,8.6034 88.32672,9.3354 C89.03712,10.0662 89.39232,10.953 89.39232,11.9994 C89.39232,13.0518 89.03832,13.9422 88.33152,14.6694 Z" id="Stroke-25" stroke="#FEFEFE" stroke-width="0.2" mask="url(#mask-6)"></path>
                            <polygon id="Fill-26" fill="#FEFEFE" mask="url(#mask-6)" points="90.6906 15.59988 90.6906 8.39988 91.8162 8.39988 95.3154 14.00148 95.3562 14.00148 95.3154 12.61308 95.3154 8.39988 96.2418 8.39988 96.2418 15.59988 95.2758 15.59988 91.6158 9.72708 91.575 9.72708 91.6158 11.11548 91.6158 15.59988"></polygon>
                            <polygon id="Stroke-27" stroke="#FEFEFE" stroke-width="0.2" mask="url(#mask-6)" points="90.6906 15.59988 90.6906 8.39988 91.8162 8.39988 95.3154 14.00148 95.3562 14.00148 95.3154 12.61308 95.3154 8.39988 96.2418 8.39988 96.2418 15.59988 95.2758 15.59988 91.6158 9.72708 91.575 9.72708 91.6158 11.11548 91.6158 15.59988"></polygon>
                            <path d="M128.3232,36 L130.5624,36 L130.5624,20.9988 L128.3232,20.9988 L128.3232,36 Z M148.4928,26.4024 L145.9248,32.9064 L145.8468,32.9064 L143.1852,26.4024 L140.772,26.4024 L144.7668,35.4924 L142.4904,40.5492 L144.8256,40.5492 L150.9816,26.4024 L148.4928,26.4024 Z M135.7932,34.296 C135.0588,34.296 134.0364,33.9288 134.0364,33.0216 C134.0364,31.8648 135.3096,31.4196 136.41,31.4196 C137.394,31.4196 137.8572,31.632 138.456,31.9212 C138.282,33.312 137.0856,34.296 135.7932,34.296 L135.7932,34.296 Z M136.0632,26.0736 C134.442,26.0736 132.762,26.7876 132.0672,28.3704 L134.0556,29.2008 C134.4804,28.3704 135.2712,28.1004 136.1004,28.1004 C137.2596,28.1004 138.4368,28.7952 138.456,30.03 L138.456,30.1848 C138.0504,29.9532 137.1828,29.6064 136.1208,29.6064 C133.9788,29.6064 131.7972,30.7836 131.7972,32.9832 C131.7972,34.9908 133.554,36.2832 135.522,36.2832 C137.028,36.2832 137.8572,35.6088 138.3792,34.818 L138.456,34.818 L138.456,35.9748 L140.6172,35.9748 L140.6172,30.2232 C140.6172,27.5604 138.63,26.0736 136.0632,26.0736 L136.0632,26.0736 Z M122.2248,28.2276 L119.0412,28.2276 L119.0412,23.0856 L122.2248,23.0856 C123.8988,23.0856 124.8492,24.4716 124.8492,25.6572 C124.8492,26.82 123.8988,28.2276 122.2248,28.2276 L122.2248,28.2276 Z M122.1672,20.9988 L116.8008,20.9988 L116.8008,36 L119.0412,36 L119.0412,30.3168 L122.1672,30.3168 C124.6488,30.3168 127.0884,28.5192 127.0884,25.6572 C127.0884,22.7952 124.6488,20.9988 122.1672,20.9988 L122.1672,20.9988 Z M92.91,34.2984 C91.3632,34.2984 90.0684,33.0036 90.0684,31.224 C90.0684,29.4264 91.3632,28.1124 92.91,28.1124 C94.4376,28.1124 95.6364,29.4264 95.6364,31.224 C95.6364,33.0036 94.4376,34.2984 92.91,34.2984 L92.91,34.2984 Z M95.4816,27.2424 L95.4036,27.2424 C94.9008,26.6436 93.9348,26.1024 92.7168,26.1024 C90.1644,26.1024 87.8256,28.344 87.8256,31.224 C87.8256,34.086 90.1644,36.3096 92.7168,36.3096 C93.9348,36.3096 94.9008,35.7684 95.4036,35.1492 L95.4816,35.1492 L95.4816,35.8836 C95.4816,37.836 94.4376,38.88 92.7552,38.88 C91.3824,38.88 90.5316,37.8948 90.1848,37.0632 L88.2312,37.8744 C88.7928,39.228 90.2808,40.8912 92.7552,40.8912 C95.3844,40.8912 97.6068,39.3444 97.6068,35.574 L97.6068,26.412 L95.4816,26.412 L95.4816,27.2424 Z M99.1536,36 L101.3964,36 L101.3964,20.9976 L99.1536,20.9976 L99.1536,36 Z M104.7024,31.0512 C104.6436,29.0784 106.23,28.0728 107.37,28.0728 C108.2592,28.0728 109.014,28.5192 109.2648,29.1564 L104.7024,31.0512 Z M111.6624,29.3496 C111.2376,28.2096 109.9428,26.1024 107.2932,26.1024 C104.664,26.1024 102.48,28.17 102.48,31.206 C102.48,34.0668 104.6436,36.3096 107.544,36.3096 C109.884,36.3096 111.2376,34.878 111.7968,34.0476 L110.058,32.8872 C109.4784,33.738 108.6852,34.2984 107.544,34.2984 C106.404,34.2984 105.5928,33.7764 105.0696,32.7528 L111.894,29.9292 L111.6624,29.3496 Z M57.2916,27.6684 L57.2916,29.8332 L62.4732,29.8332 C62.3184,31.0512 61.9128,31.9404 61.2936,32.5596 C60.5412,33.3132 59.3604,34.1436 57.2916,34.1436 C54.102,34.1436 51.6084,31.572 51.6084,28.3824 C51.6084,25.1928 54.102,22.6212 57.2916,22.6212 C59.0124,22.6212 60.27,23.2992 61.1976,24.1692 L62.7252,22.6416 C61.4304,21.4044 59.7084,20.4564 57.2916,20.4564 C52.9236,20.4564 49.2492,24.0144 49.2492,28.3824 C49.2492,32.7528 52.9236,36.3096 57.2916,36.3096 C59.6508,36.3096 61.4304,35.5356 62.8212,34.086 C64.2516,32.6556 64.6968,30.6456 64.6968,29.0208 C64.6968,28.5192 64.6584,28.0548 64.5804,27.6684 L57.2916,27.6684 Z M70.5876,34.2984 C69.0408,34.2984 67.7064,33.0228 67.7064,31.206 C67.7064,29.37 69.0408,28.1124 70.5876,28.1124 C72.1344,28.1124 73.4676,29.37 73.4676,31.206 C73.4676,33.0228 72.1344,34.2984 70.5876,34.2984 L70.5876,34.2984 Z M70.5876,26.1024 C67.764,26.1024 65.4636,28.248 65.4636,31.206 C65.4636,34.1436 67.764,36.3096 70.5876,36.3096 C73.4088,36.3096 75.7092,34.1436 75.7092,31.206 C75.7092,28.248 73.4088,26.1024 70.5876,26.1024 L70.5876,26.1024 Z M81.7632,34.2984 C80.2164,34.2984 78.8832,33.0228 78.8832,31.206 C78.8832,29.37 80.2164,28.1124 81.7632,28.1124 C83.3088,28.1124 84.6432,29.37 84.6432,31.206 C84.6432,33.0228 83.3088,34.2984 81.7632,34.2984 L81.7632,34.2984 Z M81.7632,26.1024 C78.9408,26.1024 76.6404,28.248 76.6404,31.206 C76.6404,34.1436 78.9408,36.3096 81.7632,36.3096 C84.5856,36.3096 86.886,34.1436 86.886,31.206 C86.886,28.248 84.5856,26.1024 81.7632,26.1024 L81.7632,26.1024 Z" id="Fill-28" fill="#FEFEFE" mask="url(#mask-6)"></path>
                            <path d="M12.52188,9.05616 C12.17268,9.42576 11.96628,9.99816 11.96628,10.74096 L11.96628,37.25856 C11.96628,38.00136 12.17268,38.57496 12.52188,38.94336 L12.61068,39.02976 L27.46428,24.17616 L27.46428,23.99976 L27.46428,23.82456 L12.61068,8.96976 L12.52188,9.05616 Z" id="Fill-29" fill="#5AC8F2" mask="url(#mask-6)"></path>
                        </g>
                        <g id="Group-33" transform="translate(27.400000, 18.000240)">
                            <mask id="mask-8" fill="white">
                                <use xlink:href="#path-7"></use>
                            </mask>
                            <g id="Clip-32"></g>
                            <path d="M0.0644,5.8248 L0.0644,6 L0.0644,6.1752 L5.0156,11.1276 L5.1296,11.064 L10.9964,7.7304 C12.6716,6.7788 12.6716,5.22 10.9964,4.2684 L10.9964,4.2684 L5.1296,0.9348 L5.0168,0.8712 L0.0644,5.8248 Z" id="Fill-31" fill="url(#linearGradient-9)" mask="url(#mask-8)"></path>
                        </g>
                        <g id="Group-36" transform="translate(12.000000, 24.000240)">
                            <mask id="mask-11" fill="white">
                                <use xlink:href="#path-10"></use>
                            </mask>
                            <g id="Clip-35"></g>
                            <path d="M0.522,14.9436 C1.074,15.5268 1.9872,15.6 3.0132,15.0168 L3.0132,15.0168 L20.5296,5.064 L15.4644,0 L0.522,14.9436 Z" id="Fill-34" fill="url(#linearGradient-12)" mask="url(#mask-11)"></path>
                        </g>
                        <g id="Group-39" transform="translate(12.000000, 8.400240)">
                            <mask id="mask-14" fill="white">
                                <use xlink:href="#path-13"></use>
                            </mask>
                            <g id="Clip-38"></g>
                            <path d="M0.522,0.6564 L15.4644,15.6 L20.5296,10.5348 L3.0132,0.5844 C2.532,0.3096 2.0748,0.18 1.6692,0.18 L1.6692,0.18 C1.2096,0.18 0.8148,0.3456 0.522,0.6564" id="Fill-37" fill="url(#linearGradient-15)" mask="url(#mask-14)"></path>
                        </g>
                    </g>
                </g>
            </g>
        </g>
    </g>
</svg>