<?xml version="1.0" encoding="UTF-8"?>
<svg width="36px" height="32px" viewBox="0 0 36 32" version="1.1" xmlns="http://www.w3.org/2000/svg" xmlns:xlink="http://www.w3.org/1999/xlink">
    <!-- Generator: Sketch 57.1 (83088) - https://sketch.com -->
    <title> Round / Maps / directions_car Copy 4</title>
    <desc>Created with Sketch.</desc>
    <g id="Driver-Landing-Page" stroke="none" stroke-width="1" fill="none" fill-rule="evenodd">
        <g id="Dropoff.ng-driver-landingpage" transform="translate(-868.000000, -1126.000000)">
            <g id="WhyWork" transform="translate(124.000000, 852.000000)">
                <g id="usp-block" transform="translate(0.000000, 120.000000)">
                    <g id="Usp5" transform="translate(738.000000, 136.000000)">
                        <g id="-Round-/-Maps-/-directions_car-Copy-4" transform="translate(0.000000, 8.000000)">
                            <polygon id="Path" points="0 0 48 0 48 48 0 48"></polygon>
                            <path d="M37.84,12.02 C37.44,10.84 36.32,10 35,10 L13,10 C11.68,10 10.58,10.84 10.16,12.02 L6.22,23.36 C6.08,23.78 6,24.22 6,24.68 L6,39 C6,40.66 7.34,42 9,42 C10.66,42 12,40.66 12,39 L12,38 L36,38 L36,39 C36,40.64 37.34,42 39,42 C40.64,42 42,40.66 42,39 L42,24.68 C42,24.24 41.92,23.78 41.78,23.36 L37.84,12.02 Z M13,32 C11.34,32 10,30.66 10,29 C10,27.34 11.34,26 13,26 C14.66,26 16,27.34 16,29 C16,30.66 14.66,32 13,32 Z M35,32 C33.34,32 32,30.66 32,29 C32,27.34 33.34,26 35,26 C36.66,26 38,27.34 38,29 C38,30.66 36.66,32 35,32 Z M10,22 L12.54,14.36 C12.82,13.56 13.58,13 14.44,13 L33.56,13 C34.42,13 35.18,13.56 35.46,14.36 L38,22 L10,22 Z" id="🔹-Icon-Color" fill="#FFCC01"></path>
                        </g>
                    </g>
                </g>
            </g>
        </g>
    </g>
</svg>