<?xml version="1.0" encoding="UTF-8"?>
<svg width="32px" height="32px" viewBox="0 0 32 32" version="1.1" xmlns="http://www.w3.org/2000/svg" xmlns:xlink="http://www.w3.org/1999/xlink">
    <!-- Generator: Sketch 57.1 (83088) - https://sketch.com -->
    <title> Round / Maps / directions_car Copy 2</title>
    <desc>Created with Sketch.</desc>
    <g id="Driver-Landing-Page" stroke="none" stroke-width="1" fill="none" fill-rule="evenodd">
        <g id="Dropoff.ng-driver-landingpage" transform="translate(-980.000000, -988.000000)">
            <g id="WhyWork" transform="translate(124.000000, 852.000000)">
                <g id="usp-block" transform="translate(0.000000, 120.000000)">
                    <g id="Usp3" transform="translate(848.000000, 8.000000)">
                        <g id="-Round-/-Maps-/-directions_car-Copy-2">
                            <polygon id="Path" points="0 0 48 0 48 48 0 48"></polygon>
                            <path d="M26.4382512,29.0368499 L29.0405056,26.4345956 L39.4677207,36.8618107 C40.1774264,37.5715164 40.1774264,38.7361617 39.4677207,39.4640651 C38.758015,40.1737708 37.5933696,40.1737708 36.8654663,39.4640651 L26.4382512,29.0368499 L26.4382512,29.0368499 Z M34.2450143,18.6096348 L36.5561074,16.2985418 C38.1756923,14.6789569 37.9573213,11.876529 35.9919823,10.6936861 C28.9131225,6.36266136 19.5595648,7.25434294 13.4269792,13.3687309 C20.5786294,11.0030451 28.5491708,12.9137913 34.2450143,18.6096348 Z M13.3723865,13.4233236 C7.25799856,19.5559091 6.36631698,28.9094669 10.6791442,35.9883267 C11.8801847,37.9536657 14.6644149,38.1902343 16.2839998,36.5524518 L18.5950928,34.2413587 C12.9174469,28.5455152 11.0067007,20.5749738 13.3723865,13.4233236 Z M13.4087817,13.3869284 L13.3905841,13.405126 C12.6990759,18.8825986 15.5197013,25.9250632 21.2155448,31.6391043 L31.6427599,21.2118892 C25.9469164,15.5160457 18.8862542,12.6954203 13.4087817,13.3869284 Z" id="🔹-Icon-Color" fill="#FFCC01"></path>
                        </g>
                    </g>
                </g>
            </g>
        </g>
    </g>
</svg>