<?xml version="1.0" encoding="UTF-8"?>
<svg width="32px" height="32px" viewBox="0 0 32 32" version="1.1" xmlns="http://www.w3.org/2000/svg" xmlns:xlink="http://www.w3.org/1999/xlink">
    <!-- Generator: Sketch 57.1 (83088) - https://sketch.com -->
    <title> Round / Maps / directions_car Copy</title>
    <desc>Created with Sketch.</desc>
    <g id="Driver-Landing-Page" stroke="none" stroke-width="1" fill="none" fill-rule="evenodd">
        <g id="Dropoff.ng-driver-landingpage" transform="translate(-546.000000, -988.000000)">
            <g id="WhyWork" transform="translate(124.000000, 852.000000)">
                <g id="usp-block" transform="translate(0.000000, 120.000000)">
                    <g id="Usp2" transform="translate(414.000000, 0.000000)">
                        <g id="-Round-/-Maps-/-directions_car-Copy" transform="translate(0.000000, 8.000000)">
                            <polygon id="Path" points="0 0 48 0 48 48 0 48"></polygon>
                            <path d="M39.056,23.328 L24.656,8.928 C24.08,8.352 23.28,8 22.4,8 L11.2,8 C9.44,8 8,9.44 8,11.2 L8,22.4 C8,23.28 8.352,24.08 8.944,24.672 L23.344,39.072 C23.92,39.648 24.72,40 25.6,40 C26.48,40 27.28,39.648 27.856,39.056 L39.056,27.856 C39.648,27.28 40,26.48 40,25.6 C40,24.72 39.632,23.904 39.056,23.328 Z M13.6,16 C12.272,16 11.2,14.928 11.2,13.6 C11.2,12.272 12.272,11.2 13.6,11.2 C14.928,11.2 16,12.272 16,13.6 C16,14.928 14.928,16 13.6,16 Z M32.432,29.232 L26.16,35.504 C25.84,35.824 25.344,35.824 25.024,35.504 L18.752,29.232 C17.84,28.304 17.36,26.944 17.68,25.488 C17.984,24.08 19.104,22.912 20.496,22.544 C22,22.144 23.456,22.608 24.4,23.584 L25.6,24.736 L26.768,23.568 C27.488,22.848 28.496,22.4 29.6,22.4 C31.808,22.4 33.6,24.192 33.6,26.4 C33.6,27.504 33.152,28.512 32.432,29.232 L32.432,29.232 Z" id="🔹Icon-Color" fill="#FFCC01"></path>
                        </g>
                    </g>
                </g>
            </g>
        </g>
    </g>
</svg>