<?xml version="1.0" encoding="UTF-8"?>
<svg width="32px" height="32px" viewBox="0 0 32 32" version="1.1" xmlns="http://www.w3.org/2000/svg" xmlns:xlink="http://www.w3.org/1999/xlink">
    <!-- Generator: Sketch 57.1 (83088) - https://sketch.com -->
    <title> Round / Maps / directions_car Copy 3</title>
    <desc>Created with Sketch.</desc>
    <g id="Driver-Landing-Page" stroke="none" stroke-width="1" fill="none" fill-rule="evenodd">
        <g id="Dropoff.ng-driver-landingpage" transform="translate(-328.000000, -1126.000000)">
            <g id="WhyWork" transform="translate(124.000000, 852.000000)">
                <g id="usp-block" transform="translate(0.000000, 120.000000)">
                    <g id="Usp4" transform="translate(196.000000, 144.000000)">
                        <g id="-Round-/-Maps-/-directions_car-Copy-3">
                            <polygon id="Path" points="0 0 48 0 48 48 0 48"></polygon>
                            <path d="M24.6601564,12.8490378 C21.6402655,9.82914691 17.1179413,9.21314925 13.4820527,10.9860206 L18.9358856,16.4398534 C19.5218345,17.0258024 19.5218345,17.9723354 18.9358856,18.5582844 L16.5470166,20.9471533 C15.9610676,21.5481267 15.0145346,21.5481267 14.4285856,20.9471533 L8.97475276,15.4933205 C7.21690579,19.1442334 7.83290345,23.636509 10.8527944,26.6563999 C13.6473203,29.4509258 17.7339389,30.1871182 21.2045598,28.8800012 L33.1639289,40.8393703 C34.7114352,42.3868766 37.2054745,42.3868766 38.7379565,40.8393703 C40.2854628,39.291864 40.2854628,36.7978247 38.7379565,35.2653427 L26.8386847,23.3510466 C28.2209234,19.8353527 27.4997554,15.6886368 24.6601564,12.8490378 Z" id="🔹Icon-Color" fill="#FFCC01"></path>
                        </g>
                    </g>
                </g>
            </g>
        </g>
    </g>
</svg>