<?xml version="1.0" encoding="UTF-8"?>
<svg width="982px" height="691px" viewBox="0 0 982 691" version="1.1" xmlns="http://www.w3.org/2000/svg" xmlns:xlink="http://www.w3.org/1999/xlink">
    <!-- Generator: Sketch 57.1 (83088) - https://sketch.com -->
    <title>waves</title>
    <desc>Created with Sketch.</desc>
    <g id="Driver-Landing-Page" stroke="none" stroke-width="1" fill="none" fill-rule="evenodd" opacity="0.5">
        <g id="Dropoff.ng-customer-landingpage-A-v2" transform="translate(-458.000000, 0.000000)" stroke="#FFDD57">
            <g id="waves" transform="translate(445.000000, -622.000000)">
                <path d="M123.465713,216.391748 C84.9006488,260.962172 3.89312589,354.586532 0.13649177,495.062287 C-2.92821669,609.581382 45.5555365,747.531076 151.798763,818.790162 C279.305649,904.313482 366.674318,811.051855 523.454229,898.888825 C567.326232,923.466445 560.374337,930.708036 745.115225,1119.15606 C909.095078,1286.42505 931.504331,1297.9933 956.775937,1304.38197 C1091.18902,1338.34491 1251.45467,1211.77392 1331.76374,1100.80046 C1487.75708,885.232413 1469.43737,552.488496 1313.43098,319.852385 C1116.02981,25.4862855 752.475094,-27.6361438 520.121889,11.1403538 C450.60947,22.7445459 261.273152,57.122496 123.465713,216.391748 Z" id="Stroke-1" stroke-width="6"></path>
                <path d="M198.245559,223.729116 C156.687363,267.384421 82.1443471,358.622047 76.3547884,490.14429 C71.7335849,595.064287 112.120163,719.154657 205.516775,785.19067 C214.700438,791.69315 223.688287,797.158245 232.54233,801.752851 C331.496789,852.820396 410.651217,793.398129 539.225763,862.516848 C553.634388,870.25961 561.763921,876.57883 575.144524,887.725005 C601.51084,909.696648 637.899555,944.57835 743.43009,1048.51987 C888.159266,1191.07375 908.703388,1203.30967 932.504545,1209.89723 C1051.49727,1242.82525 1191.13856,1136.21663 1265.04191,1040.87855 C1330.08144,956.974624 1364.05185,845.948121 1368.50009,734.744902 C1374.24069,591.366349 1330.20219,444.617108 1253.85442,330.67807 C1080.18072,71.4755106 760.547472,19.5603856 552.283274,47.9363342 C488.102067,56.6804854 325.782292,89.7557608 198.245559,223.729116 Z" id="Stroke-3" stroke-width="5.286"></path>
                <path d="M280.264695,230.008893 C235.396618,272.66081 167.607942,361.028925 159.728271,483.061705 C153.602179,577.946719 185.86213,687.683216 266.467925,748.224789 C274.399843,754.19671 282.204407,759.320162 289.963253,763.673464 C376.097552,811.967704 449.195944,765.093019 562.433958,822.456094 C575.368635,829.00889 582.67031,834.824171 595.089036,843.449191 C623.427113,863.127161 655.931977,886.146795 749.305907,973.454323 C874.760186,1090.75525 893.559714,1103.54756 915.912115,1110.33532 C1019.58219,1141.81028 1138.78629,1055.88641 1206.19943,976.551237 C1266.93461,905.070932 1299.96522,802.742228 1305.24881,704.101104 C1312.35456,571.462453 1268.36817,438.386514 1202.1502,339.99014 C1052.10012,116.999261 776.060213,66.2346689 591.901901,84.3756028 C532.959485,90.17783 395.53712,120.425773 280.264695,230.008893 Z" id="Stroke-5" stroke-width="4.571"></path>
                <path d="M355.381516,234.034759 C306.930696,275.861182 246.371251,361.759633 236.33839,474.866831 C228.772947,560.147496 252.807426,656.035126 320.534133,711.361325 C327.2053,716.833147 333.817719,721.621808 340.472568,725.759996 C413.754229,771.345436 480.710684,736.893225 578.418478,782.831686 C589.871083,788.215253 596.587944,793.34386 607.776183,799.701502 C638.46551,817.146612 666.527494,828.436739 747.749933,899.537735 C853.607387,992.208955 870.810773,1005.50607 891.695704,1012.55995 C979.984228,1042.3804 1078.75275,977.117317 1139.40358,913.370919 C1195.9192,853.96537 1227.90099,759.885336 1233.93572,673.352756 C1242.47377,550.844745 1198.51391,430.847103 1142.49765,347.537472 C1016.24483,159.717351 783.955049,109.49361 624.264801,117.871315 C570.575614,120.688944 456.402048,146.825556 355.381516,234.034759 Z" id="Stroke-7" stroke-width="3.857"></path>
                <path d="M429.227897,242.413132 C376.650732,283.129908 323.658132,366.572833 311.345531,470.508105 C302.405483,545.995216 318.18223,627.817574 373.193129,677.806875 C378.619964,682.76333 384.059883,687.206824 389.624106,691.127553 C450.248295,733.863504 511.310817,711.851876 593.652159,746.364097 C603.658601,750.559278 610.017713,754.741389 619.785361,759.070528 C653.350613,773.949696 676.418749,773.756927 745.88158,828.493578 C832.109046,896.443087 848.065707,910.025148 867.532309,917.392852 C940.740605,945.102608 1019.52294,901.161032 1073.27444,853.043879 C1125.95301,805.887305 1156.84901,720.232435 1163.54178,645.999957 C1173.6529,533.886697 1129.48585,427.233053 1083.53604,359.201862 C980.769645,206.989341 791.507555,156.872616 656.029683,156 C607.400794,155.689863 514.634304,176.270425 429.227897,242.413132 Z" id="Stroke-9" stroke-width="3.143"></path>
                <path d="M507.101558,246.3665 C450.146056,285.481052 405.725653,367.221693 391.075297,462.180514 C380.916195,528.025961 388.249521,595.933168 430.238519,640.683199 C434.390812,645.137258 438.631104,649.237871 443.070211,652.952314 C490.727055,692.868661 545.635744,683.132568 612.023534,706.463193 C620.546489,709.457656 626.63478,712.458663 634.786179,715.034228 C671.443034,726.619361 688.619314,715.74439 746.285334,754.152052 C811.861569,797.825386 827.043184,811.289013 844.952797,819.08116 C902.811113,844.264098 961.45491,822.317798 1007.5799,789.483436 C1056.47852,754.675674 1085.87702,677.094553 1093.05716,615.019184 C1104.84915,513.086375 1060.56563,419.564242 1024.93544,366.688254 C946.224406,249.809314 800.94632,198.929634 690.548794,189.563348 C647.213723,185.888178 575.086383,199.672522 507.101558,246.3665 Z" id="Stroke-11" stroke-width="2.429"></path>
                <path d="M586.808446,255.881633 C524.402406,291.587821 489.590277,372.783876 472.381102,458.200405 C461.120938,514.076875 459.936343,567.678525 489.059812,606.9436 C491.956213,610.870759 495.018587,614.595857 498.338057,618.09608 C533.260836,654.884274 582.249056,657.181907 632.763581,669.576087 C639.841863,671.313162 645.686734,672.897062 652.21828,673.969291 C692.318782,680.559096 702.622157,661.249205 749.429941,682.628595 C793.591911,702.802135 809.125079,714.932332 825.442553,723.278768 C868.400403,745.254564 907.407431,746.548408 945.52276,728.512807 C991.292395,706.853139 1018.91234,637.16806 1026.4202,587.555491 C1040.21227,496.406287 995.412444,416.487781 969.972936,379.031481 C915.029195,298.073337 813.297198,245.66776 727.511674,228.939039 C689.3996,221.508397 636.672095,227.35188 586.808446,255.881633 Z" id="Stroke-13" stroke-width="1.714"></path>
                <path d="M549.319485,452.199836 C535.8867,502.984382 525.288892,545.657191 549.319485,581.746938 C575.397381,620.907047 629.362873,632.951057 665.664269,631.568744 C708.898504,629.929483 711.78556,609.822524 748.763965,609.978644 C814.297211,610.258359 834.740954,673.519498 880.068061,666.448561 C923.074457,659.738652 948.911494,595.885559 956.521345,558.494811 C972.903029,477.995419 926.947734,411.293135 911.646662,389.088313 C863.884923,319.764513 754.625959,227.334949 662.341062,262.862014 C592.260784,289.841507 569.424723,376.179138 549.319485,452.199836 Z" id="Stroke-15"></path>
            </g>
        </g>
    </g>
</svg>