<?xml version="1.0" encoding="UTF-8"?>
<svg width="16px" height="16px" viewBox="0 0 16 16" version="1.1" xmlns="http://www.w3.org/2000/svg" xmlns:xlink="http://www.w3.org/1999/xlink">
    <!-- Generator: Sketch 57.1 (83088) - https://sketch.com -->
    <title>Fill 1</title>
    <desc>Created with Sketch.</desc>
    <g id="Driver-Landing-Page" stroke="none" stroke-width="1" fill="none" fill-rule="evenodd">
        <g id="Dropoff.ng-driver-landingpage" transform="translate(-1308.000000, -4373.000000)" fill="#000000">
            <g id="Footer" transform="translate(82.000000, 4372.000000)">
                <g id="Social-links" transform="translate(1194.000000, 1.000000)">
                    <g id="Group-3" transform="translate(32.000000, 0.000000)">
                        <path d="M12.5742,6.15786667 C12.7135333,9.23586667 10.4182,12.6678667 6.3542,12.6678667 C5.11886667,12.6678667 3.9682,12.3052 3.0002,11.6852 C4.16086667,11.8212 5.3202,11.4985333 6.2402,10.7785333 C5.2822,10.7605333 4.4742,10.1285333 4.19553333,9.25853333 C4.53886667,9.32386667 4.8762,9.30453333 5.1842,9.22053333 C4.13153333,9.00986667 3.40486667,8.0612 3.42886667,7.0472 C3.72353333,7.21186667 4.06086667,7.30986667 4.41953333,7.3212 C3.44553333,6.66986667 3.16953333,5.3832 3.7422,4.3992 C4.8222,5.72386667 6.43486667,6.59453333 8.25286667,6.68586667 C7.9342,5.3172 8.97286667,3.9992 10.3855333,3.9992 C11.0142,3.9992 11.5835333,4.26453333 11.9815333,4.68986667 C12.4802,4.59186667 12.9488667,4.40986667 13.3722,4.1592 C13.2082,4.67053333 12.8622,5.0992 12.4102,5.36986667 C12.8528667,5.31653333 13.2748667,5.1992 13.6668667,5.0252 C13.3735333,5.46386667 13.0028667,5.8492 12.5742,6.15786667 M12.6668667,-0.000133333333 L3.33353333,-0.000133333333 C1.4922,-0.000133333333 0.0002,1.49253333 0.0002,3.3332 L0.0002,12.6665333 C0.0002,14.5072 1.4922,15.9998667 3.33353333,15.9998667 L12.6668667,15.9998667 C14.5075333,15.9998667 16.0002,14.5072 16.0002,12.6665333 L16.0002,3.3332 C16.0002,1.49253333 14.5075333,-0.000133333333 12.6668667,-0.000133333333" id="Fill-1"></path>
                    </g>
                </g>
            </g>
        </g>
    </g>
</svg>