<?xml version="1.0" encoding="UTF-8"?>
<svg width="16px" height="16px" viewBox="0 0 16 16" version="1.1" xmlns="http://www.w3.org/2000/svg" xmlns:xlink="http://www.w3.org/1999/xlink">
    <!-- Generator: Sketch 57.1 (83088) - https://sketch.com -->
    <title>Group 3</title>
    <desc>Created with Sketch.</desc>
    <defs>
        <polygon id="path-1" points="6.66666667e-05 0 16 0 16 15.9999333 6.66666667e-05 15.9999333"></polygon>
    </defs>
    <g id="Driver-Landing-Page" stroke="none" stroke-width="1" fill="none" fill-rule="evenodd">
        <g id="Dropoff.ng-driver-landingpage" transform="translate(-1340.000000, -4373.000000)">
            <g id="Footer" transform="translate(82.000000, 4372.000000)">
                <g id="Social-links" transform="translate(1194.000000, 1.000000)">
                    <g id="Group-3" transform="translate(64.000000, 0.000000)">
                        <mask id="mask-2" fill="white">
                            <use xlink:href="#path-1"></use>
                        </mask>
                        <g id="Clip-2"></g>
                        <path d="M13.3014,10.1986 C13.2134,12.1379333 12.1340667,13.2126 10.1994,13.3012667 C9.63006667,13.3266 9.44873333,13.3332667 8.00006667,13.3332667 C6.5514,13.3332667 6.37073333,13.3266 5.8014,13.3012667 C3.86273333,13.2126 2.7874,12.1359333 2.69873333,10.1986 C2.67273333,9.62993333 2.66673333,9.4486 2.66673333,7.99993333 C2.66673333,6.55193333 2.67273333,6.36993333 2.69873333,5.80126667 C2.7874,3.8626 3.86406667,2.78726667 5.8014,2.6986 C6.37073333,2.6726 6.5514,2.6666 8.00006667,2.6666 C9.44873333,2.6666 9.63006667,2.6726 10.1994,2.6986 C12.1380667,2.78793333 13.2140667,3.86593333 13.3014,5.80126667 C13.3274,6.36993333 13.3334,6.55193333 13.3334,7.99993333 C13.3334,9.4486 13.3274,9.62993333 13.3014,10.1986 M12.6667333,-6.66666667e-05 L3.3334,-6.66666667e-05 C1.49273333,-6.66666667e-05 6.66666667e-05,1.4926 6.66666667e-05,3.33326667 L6.66666667e-05,12.6666 C6.66666667e-05,14.5072667 1.49273333,15.9999333 3.3334,15.9999333 L12.6667333,15.9999333 C14.5080667,15.9999333 16.0000667,14.5072667 16.0000667,12.6666 L16.0000667,3.33326667 C16.0000667,1.4926 14.5080667,-6.66666667e-05 12.6667333,-6.66666667e-05 M9.77806667,7.99993333 C9.77806667,8.98193333 8.98206667,9.77726667 8.00006667,9.77726667 C7.01806667,9.77726667 6.22206667,8.98193333 6.22206667,7.99993333 C6.22206667,7.01793333 7.01806667,6.2226 8.00006667,6.2226 C8.98206667,6.2226 9.77806667,7.01793333 9.77806667,7.99993333 M10.8467333,5.79326667 C10.4934,5.79326667 10.2067333,5.5066 10.2067333,5.15326667 C10.2067333,4.79993333 10.4934,4.51326667 10.8467333,4.51326667 C11.2007333,4.51326667 11.4867333,4.79993333 11.4867333,5.15326667 C11.4867333,5.5066 11.2007333,5.79326667 10.8467333,5.79326667 M8.00006667,10.7392667 C6.4874,10.7392667 5.26073333,9.5126 5.26073333,7.99993333 C5.26073333,6.48793333 6.4874,5.26126667 8.00006667,5.26126667 C9.51206667,5.26126667 10.7387333,6.48793333 10.7387333,7.99993333 C10.7387333,9.5126 9.51206667,10.7392667 8.00006667,10.7392667 M10.1554,3.6586 C9.5934,3.63326667 9.42406667,3.62793333 8.00006667,3.62793333 C6.57606667,3.62793333 6.4074,3.63326667 5.84473333,3.6586 C4.39873333,3.7246 3.72473333,4.4106 3.65873333,5.84526667 C3.6334,6.40726667 3.6274,6.57593333 3.6274,7.99993333 C3.6274,9.42393333 3.6334,9.59326667 3.65873333,10.1552667 C3.72473333,11.5872667 4.39606667,12.2752667 5.84473333,12.3412667 C6.40673333,12.3672667 6.57606667,12.3726 8.00006667,12.3726 C9.42473333,12.3726 9.5934,12.3672667 10.1554,12.3412667 C11.6020667,12.2759333 12.2754,11.5886 12.3420667,10.1552667 C12.3674,9.59326667 12.3720667,9.42393333 12.3720667,7.99993333 C12.3720667,6.57593333 12.3674,6.40726667 12.3420667,5.84526667 C12.2754,4.4106 11.6007333,3.7246 10.1554,3.6586" id="Fill-1" fill="#000000" mask="url(#mask-2)"></path>
                    </g>
                </g>
            </g>
        </g>
    </g>
</svg>