<?xml version="1.0" encoding="UTF-8"?>
<svg width="413px" height="409px" viewBox="0 0 413 409" version="1.1" xmlns="http://www.w3.org/2000/svg" xmlns:xlink="http://www.w3.org/1999/xlink">
    <!-- Generator: Sketch 57.1 (83088) - https://sketch.com -->
    <title>waves</title>
    <desc>Created with Sketch.</desc>
    <g id="Driver-Landing-Page" stroke="none" stroke-width="1" fill="none" fill-rule="evenodd">
        <g id="Dropoff.ng-driver-landingpage" transform="translate(-945.000000, -1932.000000)" stroke="#0D0D0D">
            <g id="cta+HowItWorks" transform="translate(83.000000, 1932.000000)">
                <g id="section-background">
                    <g id="waves" transform="translate(864.652231, -192.190130)">
                        <g id="Group-17" transform="translate(0.347769, 0.190130)">
                            <path d="M61.4756362,107.70032 C42.2734481,129.883463 1.93845227,176.481236 0.0679615269,246.397413 C-1.4580079,303.394703 22.6828609,372.053635 75.5831342,407.519989 C139.070938,450.085794 182.573254,403.668557 260.636585,447.385888 C282.481186,459.618414 279.019722,463.222625 371.005289,557.015079 C452.653591,640.266514 463.811532,646.024144 476.394685,649.203853 C543.321201,666.107541 623.120139,603.111905 663.107363,547.879313 C740.779044,440.588957 731.657355,274.979007 653.979173,159.193706 C555.689842,12.6847772 374.669891,-13.754783 258.977357,5.54466465 C224.365965,11.3201862 130.092257,28.4304331 61.4756362,107.70032 Z" id="Stroke-1" stroke-width="6"></path>
                            <path d="M98.8864193,110.975773 C78.1876734,132.710542 41.0602935,178.135232 38.1767082,243.616519 C35.8750415,295.853283 55.9902434,357.634446 102.507968,390.51195 C107.082043,393.749356 111.55859,396.470275 115.968493,398.757802 C165.254394,424.18292 204.678565,394.598217 268.71724,429.010516 C275.893694,432.865423 279.942742,436.011588 286.607172,441.56096 C299.739351,452.500033 317.863351,469.866668 370.424577,521.616274 C442.509333,592.589908 452.741672,598.681834 464.596231,601.961601 C523.862524,618.355548 593.413171,565.278068 630.221959,517.811874 C662.615967,476.03843 679.535493,420.761405 681.75101,365.396398 C684.610213,294.012182 662.67611,220.949794 624.649844,164.222698 C538.148787,35.1729138 378.950172,9.32580899 275.220749,23.453409 C243.254239,27.80688 162.408195,44.2741447 98.8864193,110.975773 Z" id="Stroke-3" stroke-width="5.286"></path>
                            <path d="M139.368039,114.216784 C117.031795,135.460403 83.285209,179.473866 79.3625484,240.254671 C76.3128545,287.514003 92.3725165,342.170405 132.499725,372.324316 C136.448396,375.298748 140.333667,377.850582 144.196179,380.018829 C187.075591,404.072717 223.465461,380.725866 279.837655,409.296665 C286.276801,412.560413 289.911724,415.456826 296.094019,419.752686 C310.201292,429.553682 326.382876,441.01906 372.866324,484.504277 C435.320023,542.928292 444.678812,549.299752 455.806293,552.680527 C507.415371,568.357245 566.757603,525.561187 600.31724,486.046755 C630.552452,450.444595 646.995764,399.477789 649.626044,350.347654 C653.163429,284.284388 631.266106,218.003322 598.301451,168.995089 C523.603459,57.9301339 386.185163,32.645839 294.507398,41.6812848 C265.164661,44.5711972 196.753004,59.6367751 139.368039,114.216784 Z" id="Stroke-5" stroke-width="4.571"></path>
                            <path d="M176.949995,117.193363 C152.821487,137.990776 122.662883,180.702187 117.666518,236.942644 C113.898928,279.346872 125.868098,327.025218 159.595998,354.535144 C162.91824,357.255906 166.211224,359.636979 169.525339,361.694616 C206.019606,384.361131 239.363921,367.230407 288.022402,390.072455 C293.7258,392.749334 297.070796,395.299439 302.642539,398.460658 C317.925824,407.134915 331.900692,412.748722 372.349467,448.102373 C425.066479,494.181418 433.633765,500.793162 444.034461,504.300572 C488.002145,519.128237 537.18887,486.677381 567.392984,454.980668 C595.537763,425.44236 611.464692,378.662808 614.469987,335.636088 C618.721936,274.721252 596.829926,215.054651 568.933827,173.630482 C506.059924,80.2404103 390.379614,55.2675867 310.853871,59.4332455 C284.116656,60.8342591 227.25822,73.8302042 176.949995,117.193363 Z" id="Stroke-7" stroke-width="3.857"></path>
                            <path d="M213.833042,120.982116 C187.667304,141.234746 161.294818,182.739474 155.167285,234.437148 C150.718149,271.984634 158.569661,312.683287 185.94658,337.548095 C188.647318,340.013449 191.354568,342.223654 194.123679,344.173835 C224.294128,365.430808 254.68272,354.482167 295.661004,371.648635 C300.640846,373.735329 303.805544,375.815522 308.666547,377.968847 C325.370749,385.369784 336.85092,385.2739 371.420039,412.500052 C414.332306,446.298315 422.273354,453.054067 431.961173,456.718782 C468.394273,470.501687 507.601368,448.645033 534.351534,424.711436 C560.567738,401.255634 575.943548,358.650679 579.274296,321.727251 C584.306231,265.961824 562.325904,212.912025 539.458354,179.073134 C488.315267,103.362231 394.126423,78.4340415 326.704024,78 C302.503199,77.8457369 256.336698,88.0825622 213.833042,120.982116 Z" id="Stroke-9" stroke-width="3.143"></path>
                            <path d="M251.881144,122.549007 C223.483839,142.014751 201.336378,182.693791 194.031892,229.950989 C188.96669,262.719628 192.622996,296.514322 213.558188,318.784619 C215.62847,321.001225 217.742627,323.041936 219.95591,324.890465 C243.71702,344.755231 271.09381,339.909967 304.193937,351.520684 C308.443377,353.010908 311.478923,354.504389 315.543109,355.786145 C333.819761,361.551601 342.383641,356.139564 371.135202,375.253517 C403.830697,396.987985 411.400062,403.688292 420.329573,407.566131 C449.17701,420.09867 478.416078,409.176876 501.413427,392.836531 C525.793671,375.514103 540.451393,336.90509 544.031323,306.012667 C549.910662,255.284795 527.831452,208.742579 510.066683,182.42832 C470.822338,124.262357 398.38849,98.9415807 343.345656,94.2803559 C321.739328,92.4513707 285.777533,99.3112865 251.881144,122.549007 Z" id="Stroke-11" stroke-width="2.429"></path>
                            <path d="M292.68825,127.853782 C261.59588,145.602878 244.251538,185.964412 235.677464,228.423891 C230.067347,256.199378 229.47715,282.844082 243.987247,302.362255 C245.430312,304.314397 246.956069,306.166096 248.609918,307.906013 C266.009388,326.19296 290.41664,327.335084 315.584338,333.496074 C319.110928,334.359552 322.023001,335.146889 325.277193,335.67988 C345.256343,338.95559 350.389762,329.356887 373.710662,339.984311 C395.713346,350.012324 403.452389,356.042091 411.582194,360.190999 C432.984952,371.11489 452.419305,371.758044 471.409389,362.792774 C494.213055,352.026026 507.974056,317.386453 511.714674,292.724671 C518.586257,247.415553 496.265774,207.689072 483.591126,189.070018 C456.216674,148.826746 405.531051,122.776595 362.790391,114.460959 C343.801929,110.767281 317.531664,113.672002 292.68825,127.853782 Z" id="Stroke-13" stroke-width="1.714"></path>
                            <path d="M273.142896,225.121278 C266.442307,250.390287 261.155871,271.623117 273.142896,289.580394 C286.151164,309.065399 313.070422,315.058171 331.178412,314.37037 C352.744666,313.554719 354.184797,303.550042 372.630496,303.627723 C405.320021,303.766902 415.517841,335.243925 438.128068,331.725619 C459.58067,328.386951 472.468792,296.615387 476.264765,278.010768 C484.436334,237.956459 461.512752,204.767215 453.880217,193.718699 C430.055538,159.225061 375.554596,113.234623 329.520718,130.911924 C294.563026,144.336187 283.171862,187.295445 273.142896,225.121278 Z" id="Stroke-15"></path>
                        </g>
                    </g>
                </g>
            </g>
        </g>
    </g>
</svg>