<?xml version="1.0" encoding="UTF-8"?>
<svg width="32px" height="32px" viewBox="0 0 32 32" version="1.1" xmlns="http://www.w3.org/2000/svg" xmlns:xlink="http://www.w3.org/1999/xlink">
    <!-- Generator: Sketch 57.1 (83088) - https://sketch.com -->
    <title> Round / Maps / directions_car Copy</title>
    <desc>Created with Sketch.</desc>
    <g id="Driver-Landing-Page" stroke="none" stroke-width="1" fill="none" fill-rule="evenodd">
        <g id="Dropoff.ng-customer-landingpage-A-v2" transform="translate(-981.000000, -729.000000)">
            <g id="USPs" transform="translate(126.000000, 721.000000)">
                <g id="Usp2-Copy" transform="translate(847.000000, 0.000000)">
                    <g id="-Round-/-Maps-/-directions_car-Copy">
                        <polygon id="Path" points="0 0 48 0 48 48 0 48"></polygon>
                        <path d="M19.2,23.6 C18.096,23.6 17.2,24.496 17.2,25.6 C17.2,26.704 18.096,27.6 19.2,27.6 C20.304,27.6 21.2,26.704 21.2,25.6 C21.2,24.496 20.304,23.6 19.2,23.6 Z M28.8,23.6 C27.696,23.6 26.8,24.496 26.8,25.6 C26.8,26.704 27.696,27.6 28.8,27.6 C29.904,27.6 30.8,26.704 30.8,25.6 C30.8,24.496 29.904,23.6 28.8,23.6 Z M24,8 C15.168,8 8,15.168 8,24 C8,32.832 15.168,40 24,40 C32.832,40 40,32.832 40,24 C40,15.168 32.832,8 24,8 Z M24,36.8 C16.944,36.8 11.2,31.056 11.2,24 C11.2,23.536 11.232,23.072 11.28,22.624 C15.056,20.944 18.048,17.856 19.616,14.032 C22.512,18.128 27.28,20.8 32.672,20.8 C33.92,20.8 35.12,20.656 36.272,20.384 C36.608,21.52 36.8,22.736 36.8,24 C36.8,31.056 31.056,36.8 24,36.8 Z" id="🔹Icon-Color" fill="#FFCC01"></path>
                    </g>
                </g>
            </g>
        </g>
    </g>
</svg>