<svg id="Capa_1" enable-background="new 0 0 448.941 448.941" height="512" viewBox="0 0 448.941 448.941" width="512" xmlns="http://www.w3.org/2000/svg"><path d="m210.441 0h-210.441v210.441l238.5 238.5 210.441-210.441zm-112.235 140.294c-23.245 0-42.088-18.843-42.088-42.088s18.843-42.088 42.088-42.088 42.088 18.843 42.088 42.088-18.843 42.088-42.088 42.088zm140.294 252.53c-42.088-42.088-84.176-66.139-84.176-120.254 0-17.263 16.077-48.099 48.102-48.099 13.738 0 26.404 5.571 36.075 15.46 9.671-9.889 22.337-15.46 36.075-15.46 32.024 0 48.102 30.837 48.102 48.099-.002 54.114-42.09 78.165-84.178 120.254z"/></svg>